# xmcd
#
# Track frame offsets:
#	150
#	20405
#	51581
#	68093
#	85149
#	100309
#	113315
#	127386
#	150974
#	172734
#	185584
#	208746
#	223298
#	238709
#
# Disc length: 3374 seconds
#
# Revision: 1
# Processed by: cddbd v1.5.2PL0 Copyright (c) Steve Scherf et al.
# Submitted via: EasyCDDAExtractor 2010.6.0.0
#
DISCID=c20d2c0e
DTITLE=Various Artist - Emozioni In Musica-47-Dolce Italia
DYEAR=1998
DGENRE=Italiani
TTITLE0=Eugenio Finardi - Dolce Italia 1992
TTITLE1=Mango - Nella Mia Città 1990
TTITLE2=Sergio Caputo - Un Sabato Italiano 1983
TTITLE3=Luca Barbarossa - Roma Spogliata 1981
TTITLE4=Alberto Fortis - A Voi Romani 1979
TTITLE5=Paolo Conte - Genova Per Noi 1975
TTITLE6=Bruno Lauzi - Ma Se Ghe Penso 1971
TTITLE7=Enzo Jannacci - El Portava I Scarp Del Tennis 1972
TTITLE8=Antonello Venditti - Roma Capoccia 1974
TTITLE9=Giorgio Gaber - Parlami D'amore Mariù 1987
TTITLE10=Claudio Baglioni - Sabato Pomeriggio 1975
TTITLE11=Sergio Caputo - Garibaldi Innamorato 1987
TTITLE12=Mino Reitano - Gente Di Fiumara 1996
TTITLE13=Alberto Fortis - Milano E Vincenzo 1979
EXTD=
EXTT0=
EXTT1=
EXTT2=
EXTT3=
EXTT4=
EXTT5=
EXTT6=
EXTT7=
EXTT8=
EXTT9=
EXTT10=
EXTT11=
EXTT12=
EXTT13=
PLAYORDER=
